<svg width="51" height="50" viewBox="0 0 51 50" fill="none" xmlns="http://www.w3.org/2000/svg">
<g clip-path="url(#clip0_102_72)">
<path d="M9.01741 14.5517C9.01348 14.5032 8.99981 14.4561 8.97726 14.4133C8.9547 14.3705 8.92377 14.333 8.8864 14.3031C8.84903 14.2733 8.80604 14.2518 8.76014 14.2398C8.71424 14.2279 8.66642 14.2259 8.61972 14.2339C8.29935 14.2339 8.04525 14.3133 7.8464 14.3473C7.70058 14.3591 7.55628 14.3857 7.41557 14.4268C7.36976 14.4363 7.32623 14.455 7.2875 14.4818C7.24876 14.5087 7.21558 14.5432 7.1899 14.5833C7.16421 14.6234 7.14651 14.6683 7.13784 14.7155C7.12917 14.7627 7.12971 14.8112 7.13939 14.8581C7.1591 14.9392 7.20457 15.0111 7.26862 15.0625C7.33267 15.1139 7.4116 15.1419 7.49288 15.1419H7.57022C7.93495 15.0606 8.30375 15 8.67495 14.9603C8.7244 14.9591 8.77307 14.9473 8.81779 14.9256C8.86251 14.9038 8.9023 14.8727 8.93458 14.8342C8.96685 14.7957 8.9909 14.7507 9.00517 14.702C9.01944 14.6533 9.02361 14.6021 9.01741 14.5517Z" fill="white"/>
<path d="M41.2756 31.8161L40.8558 32.1793C40.7923 32.2403 40.7529 32.3233 40.7452 32.4122C40.7374 32.5012 40.7619 32.59 40.8138 32.6616C40.8658 32.7332 40.9415 32.7827 41.0267 32.8005C41.1119 32.8183 41.2005 32.8033 41.2756 32.7582L41.7395 32.3723C42.2224 31.9346 42.6763 31.4644 43.0984 30.9648C43.151 30.8915 43.175 30.8005 43.1654 30.7099C43.1559 30.6193 43.1135 30.5357 43.0468 30.4757C42.98 30.4157 42.8938 30.3836 42.8051 30.3859C42.7164 30.3882 42.6318 30.4247 42.5681 30.4881C42.2956 30.8059 42.0194 31.101 41.7395 31.3734C41.6511 31.5323 41.4302 31.6799 41.2756 31.8161Z" fill="white"/>
<path d="M21.987 19.1373C22.0184 19.1746 22.0575 19.2041 22.1015 19.2237C22.1455 19.2434 22.1932 19.2526 22.2411 19.2508C22.2873 19.2518 22.3331 19.2421 22.3751 19.2224C22.4172 19.2028 22.4544 19.1737 22.4841 19.1373C22.5179 19.1045 22.5448 19.0649 22.5632 19.021C22.5815 18.977 22.591 18.9297 22.591 18.8819C22.591 18.8341 22.5815 18.7868 22.5632 18.7429C22.5448 18.699 22.5179 18.6594 22.4841 18.6265C22.2521 18.3768 21.9981 18.1498 21.744 17.9114L21.2689 17.5142L20.573 16.958C20.4947 16.9042 20.3993 16.8837 20.3066 16.9007C20.2139 16.9176 20.1313 16.9706 20.0758 17.0488C20.0485 17.0881 20.0291 17.1327 20.0188 17.1798C20.0084 17.2269 20.0074 17.2757 20.0156 17.3233C20.0238 17.3708 20.0412 17.4162 20.0667 17.4568C20.0922 17.4973 20.1254 17.5323 20.1642 17.5596C20.5509 17.8433 20.9154 18.1384 21.2689 18.4563L21.744 18.9103L21.987 19.1373Z" fill="white"/>
<path d="M24.7156 23.1442C24.7448 23.2058 24.7904 23.2577 24.8471 23.2939C24.9038 23.33 24.9693 23.3489 25.036 23.3485H25.1907C25.2329 23.3278 25.2708 23.2988 25.3021 23.263C25.3333 23.2273 25.3574 23.1854 25.3728 23.14C25.3882 23.0946 25.3947 23.0465 25.3919 22.9985C25.389 22.9505 25.377 22.9036 25.3564 22.8604C25.109 22.341 24.8324 21.8369 24.5278 21.3507C24.3842 21.1124 24.2406 20.8627 24.0859 20.6357C24.0273 20.5604 23.942 20.5121 23.8488 20.5015C23.7556 20.4908 23.662 20.5187 23.5888 20.5789C23.5155 20.6391 23.4686 20.7267 23.4582 20.8225C23.4479 20.9183 23.475 21.0144 23.5336 21.0897C23.7324 21.3734 23.9092 21.6686 24.0859 21.9751C24.2627 22.2815 24.4063 22.5539 24.561 22.8604C24.5831 22.9058 24.6604 23.0193 24.7156 23.1442Z" fill="white"/>
<path d="M29.8858 31.8842C29.9361 31.9007 29.9902 31.9007 30.0405 31.8842C30.0883 31.8853 30.1357 31.8756 30.1796 31.856C30.2235 31.8364 30.2627 31.8074 30.2946 31.7708C30.36 31.7028 30.3967 31.6109 30.3967 31.5153C30.3967 31.4197 30.36 31.328 30.2946 31.26L29.8968 30.84C29.7311 30.6584 29.5765 30.4768 29.4218 30.2838C29.2672 30.0908 28.9578 29.7049 28.7369 29.3984C28.6798 29.3221 28.5964 29.2713 28.5038 29.2565C28.4112 29.2417 28.3167 29.264 28.2398 29.319C28.2005 29.346 28.1672 29.3812 28.1418 29.4221C28.1164 29.4631 28.0996 29.509 28.0923 29.557C28.0851 29.605 28.0875 29.654 28.0996 29.7009C28.1117 29.7478 28.1331 29.7917 28.1625 29.8298C28.5503 30.3746 28.9709 30.8939 29.4218 31.3848L29.7974 31.782L29.8858 31.8842Z" fill="white"/>
<path d="M27.1129 27.9001H27.2234H27.2896C27.3305 27.8765 27.3665 27.8448 27.3953 27.8068C27.4242 27.7689 27.4454 27.7254 27.4577 27.6789C27.47 27.6324 27.4733 27.5839 27.4672 27.5361C27.4611 27.4883 27.4458 27.4423 27.4222 27.4007L27.2234 27.0261C27.0577 26.7196 26.903 26.4018 26.7483 26.084C26.5937 25.7662 26.4722 25.4937 26.3396 25.1872C26.3205 25.1428 26.293 25.1028 26.2586 25.0695C26.2242 25.0362 26.1837 25.0103 26.1394 24.9934C26.0951 24.9765 26.048 24.9688 26.0008 24.971C25.9536 24.9731 25.9072 24.9848 25.8645 25.0057C25.78 25.0453 25.7141 25.1176 25.681 25.2068C25.6479 25.296 25.6503 25.395 25.6878 25.4824C26.0192 26.2391 26.3874 26.9656 26.7925 27.6618L26.8478 27.7639C26.8802 27.8044 26.9206 27.8375 26.9662 27.8609C27.0119 27.8844 27.0619 27.8977 27.1129 27.9001Z" fill="white"/>
<path d="M13.5026 15.0057C13.5892 15.0064 13.673 14.9744 13.7382 14.9158C13.8033 14.8572 13.8453 14.7761 13.8561 14.6878C13.8639 14.6407 13.8623 14.5925 13.8514 14.546C13.8404 14.4996 13.8204 14.4559 13.7925 14.4176C13.7646 14.3794 13.7294 14.3474 13.689 14.3236C13.6487 14.2998 13.6041 14.2847 13.5579 14.2792C13.2375 14.2792 12.9061 14.1998 12.5746 14.1771C12.42 14.1771 12.2653 14.1771 12.0996 14.1771C11.7571 14.1771 11.4147 14.1771 11.0612 14.1771C10.9674 14.1771 10.8775 14.2153 10.8112 14.2834C10.7449 14.3516 10.7076 14.4439 10.7076 14.5403C10.7076 14.6366 10.7449 14.729 10.8112 14.7971C10.8775 14.8653 10.9674 14.9035 11.0612 14.9035H12.0996H12.5746C12.9281 14.9375 13.2154 14.9603 13.5026 15.0057Z" fill="white"/>
<path d="M44.1368 29.0012C44.1984 29.0175 44.263 29.0175 44.3246 29.0012C44.3645 29.0113 44.4062 29.0113 44.4461 29.0012C44.5198 28.9807 44.5831 28.9319 44.6229 28.865C44.8438 28.5244 45.0537 28.1725 45.2526 27.8093C45.2846 27.7251 45.286 27.6319 45.2564 27.5468C45.2268 27.4617 45.1683 27.3904 45.0916 27.3461C45.0149 27.3019 44.9251 27.2877 44.839 27.306C44.7529 27.3244 44.6761 27.3742 44.6229 27.4461C44.5676 27.5483 44.5014 27.6504 44.4461 27.7639C44.3909 27.8774 44.1699 28.2406 44.0263 28.4676C43.998 28.5096 43.9783 28.5572 43.9686 28.6072C43.9588 28.6573 43.9591 28.7089 43.9694 28.7589C43.9798 28.8089 44 28.8561 44.0287 28.8978C44.0575 28.9395 44.0943 28.9747 44.1368 29.0012Z" fill="white"/>
<path d="M15.3145 0.102149C15.2073 0.043521 15.0878 0.0128479 14.9665 0.0128479C14.8451 0.0128479 14.7256 0.043521 14.6185 0.102149L0.886708 7.45741C0.769642 7.51707 0.671287 7.60943 0.602907 7.72385C0.534527 7.83827 0.498879 7.97014 0.500047 8.10441V48.6833C0.498628 48.8091 0.529561 48.9331 0.589691 49.0427C0.649821 49.1523 0.737017 49.2437 0.84251 49.3076C0.95002 49.3825 1.07718 49.4221 1.20709 49.4211C1.32334 49.4207 1.43749 49.3894 1.53849 49.3303L15.2703 41.9864C15.3873 41.9267 15.4857 41.8344 15.5541 41.72C15.6224 41.6055 15.6581 41.4737 15.6569 41.3394V15.3462C15.7024 15.4197 15.7736 15.4725 15.8558 15.4937C16.5885 15.7078 17.3048 15.9772 17.9989 16.2997V41.9183C17.998 42.0511 18.0325 42.1817 18.0987 42.2957C18.165 42.4098 18.2604 42.503 18.3745 42.5652L32.1174 49.9206C32.2177 49.9694 32.3268 49.9965 32.4377 50C32.5325 50.0015 32.6265 49.9835 32.7143 49.9469C32.8021 49.9104 32.8818 49.8561 32.9488 49.7873C33.0158 49.7185 33.0686 49.6365 33.1042 49.5463C33.1398 49.4561 33.1573 49.3595 33.1558 49.2622V34.1544C33.4592 34.291 33.7734 34.4011 34.0948 34.4835H34.1832C34.2611 34.4817 34.3365 34.4543 34.3981 34.4052C34.4597 34.3562 34.5044 34.2882 34.5257 34.2111C34.5392 34.1649 34.5436 34.1164 34.5386 34.0685C34.5337 34.0205 34.5194 33.974 34.4968 33.9318C34.4742 33.8895 34.4436 33.8523 34.4068 33.8223C34.3701 33.7923 34.3278 33.7702 34.2826 33.7571C33.9034 33.6499 33.5338 33.5094 33.1779 33.3371V8.6833C33.1768 8.5538 33.1425 8.42687 33.0785 8.31529C33.0145 8.20371 32.9231 8.11142 32.8134 8.04767L19.0816 0.69241C18.9754 0.630737 18.8555 0.598328 18.7336 0.598328C18.6116 0.598328 18.4918 0.630737 18.3856 0.69241C18.2785 0.754473 18.19 0.845423 18.1296 0.955463C18.0693 1.0655 18.0394 1.19043 18.0431 1.31669V15.4824C17.4067 15.2018 16.7536 14.963 16.0877 14.7673C16.0164 14.7454 15.9402 14.7479 15.8704 14.7746C15.8006 14.8012 15.7412 14.8504 15.7011 14.9148V0.737788C15.6967 0.606279 15.6586 0.478313 15.5907 0.366727C15.5228 0.255141 15.4276 0.163876 15.3145 0.102149ZM14.2097 40.874L12.5968 41.7366L12.1218 41.9864L9.83501 43.235L9.35996 43.4846L7.1505 44.6879L6.85223 44.8354L4.47708 46.1067L4.22298 46.2542L1.88096 47.4574V8.52438L6.66442 5.9591L6.86329 5.85698L14.1876 1.94096L14.2097 40.874ZM19.4019 2.54259L21.2468 3.53009L21.7219 3.77978L24.0307 5.01704L24.5058 5.27808L26.7153 6.41316L27.1903 6.6742L31.7086 9.18274V32.8944L31.6313 32.9739C31.5857 33.0475 31.5684 33.1359 31.5827 33.2219C31.597 33.3079 31.6419 33.3853 31.7086 33.4393V48.1158L29.8637 47.1282L29.3887 46.8786L27.1792 45.7435L26.7042 45.4824L24.4947 44.3473L24.0197 44.0863L21.7661 42.7128L21.291 42.4631L19.4461 41.4756L19.4019 2.54259Z" fill="white"/>
<path d="M35.3432 8.0477V48.6266C35.3418 48.7524 35.3727 48.8764 35.4328 48.986C35.4929 49.0956 35.5802 49.187 35.6856 49.2509C35.7932 49.3258 35.9203 49.3654 36.0502 49.3644C36.1664 49.364 36.2806 49.3327 36.3816 49.2736L44.2252 45.0852L44.3799 44.9943L46.8103 43.7003L47.23 43.4734L50.1134 41.9296C50.2305 41.87 50.3288 41.7777 50.3972 41.6632C50.4656 41.5488 50.5012 41.417 50.5001 41.2827V0.737823C50.5029 0.611099 50.4734 0.485847 50.4146 0.374452C50.3557 0.263058 50.2695 0.169369 50.1645 0.102808C50.0595 0.0362467 49.9394 -0.000893409 49.8161 -0.00499107C49.6928 -0.00908872 49.5706 0.0200095 49.4616 0.0794605L35.7298 7.43479C35.6177 7.49182 35.5226 7.57882 35.4546 7.68669C35.3865 7.79455 35.3481 7.91926 35.3432 8.0477ZM49.0749 40.84L47.23 41.8275L46.755 42.0772L44.4461 43.3145L43.9711 43.5755L41.7617 44.7106L41.2866 44.9717L39.0772 46.1068L38.6021 46.3564L36.7572 47.344V34.7106C37.3866 34.6486 38.0062 34.5076 38.6021 34.2906L39.0772 34.0977C39.1617 34.058 39.2276 33.9858 39.2607 33.8965C39.2938 33.8073 39.2913 33.7083 39.2539 33.6209C39.2355 33.5732 39.2072 33.5302 39.171 33.4949C39.1347 33.4596 39.0914 33.4328 39.044 33.4166C38.9615 33.3888 38.8725 33.3888 38.7899 33.4166L38.569 33.5074C37.9761 33.7435 37.356 33.9 36.7241 33.9728V8.52441L38.569 7.5369L38.9446 7.3326L41.2314 6.11806L41.7064 5.85702L43.9159 4.72194L44.3909 4.4609L46.6998 3.22364L47.1748 2.97395L49.0197 1.98638L49.0749 40.84Z" fill="white"/>
</g>
<defs>
<clipPath id="clip0_102_72">
<rect width="50" height="50" fill="white" transform="translate(0.5)"/>
</clipPath>
</defs>
</svg>
