<svg width="51" height="60" viewBox="0 0 51 60" fill="none" xmlns="http://www.w3.org/2000/svg">
<g clip-path="url(#clip0_102_84)">
<path d="M49.6545 60H1.32891C1.10907 60 0.898233 59.9134 0.742782 59.7591C0.587331 59.6049 0.5 59.3957 0.5 59.1775C0.515372 56.7021 0.684237 54.23 1.00564 51.7752C1.66877 47.4654 2.45623 45.7711 8.24204 45.1049H8.63163C10.7868 44.8581 15.8432 44.2824 17.6585 43.2625C18.7858 42.621 19.1091 39.1501 18.9847 36.9459C18.9778 36.722 19.0579 36.504 19.2086 36.3372C19.2866 36.256 19.3805 36.1915 19.4845 36.1477C19.5886 36.1038 19.7006 36.0816 19.8137 36.0823H31.1698C31.2828 36.0816 31.3948 36.1038 31.4989 36.1477C31.6029 36.1915 31.6968 36.256 31.7749 36.3372C31.8517 36.4184 31.9112 36.5141 31.9497 36.6188C31.9882 36.7234 32.0048 36.8347 31.9987 36.9459C31.8743 39.183 32.2059 42.6292 33.3332 43.2625C35.1402 44.2906 40.1966 44.8581 42.3518 45.1049H42.7414C48.5438 45.7711 49.3229 47.4654 49.9778 51.7752C50.2992 54.23 50.468 56.7021 50.4834 59.1775C50.4834 59.3957 50.3961 59.6049 50.2406 59.7591C50.0852 59.9134 49.8743 60 49.6545 60ZM2.17439 58.3551H48.8173C48.7784 56.2397 48.6206 54.1281 48.3448 52.0302C47.806 48.51 47.6237 47.3338 42.5424 46.7498L42.1611 46.7005C39.6744 46.4291 34.6097 45.878 32.5043 44.6607C30.3989 43.4435 30.2911 39.5942 30.3077 37.6943H20.6674C20.6674 39.5942 20.4768 43.5257 18.4791 44.6607C16.4814 45.7958 11.2676 46.4291 8.81399 46.7005L8.4327 46.7498C3.35975 47.3338 3.18567 48.51 2.6303 52.0302C2.35587 54.128 2.20365 56.2398 2.17439 58.3551Z" fill="white"/>
<path d="M27.8375 41.2721C27.4518 41.2686 27.0668 41.2384 26.6853 41.1816H26.3786H25.4917H24.613C24.5081 41.1756 24.403 41.1756 24.298 41.1816C23.9194 41.2387 23.5371 41.2689 23.1541 41.2721C22.6121 41.3025 22.0701 41.2119 21.568 41.0069C21.0659 40.8019 20.6165 40.4878 20.253 40.0877C19.9628 39.767 19.424 39.2159 18.7278 38.5826C15.7851 35.7779 13.3481 33.3187 13.1741 31.4764C13.1741 31.2543 13.1326 30.9911 13.0994 30.7032C12.7537 30.5891 12.443 30.3895 12.1965 30.1233C11.95 29.8571 11.7758 29.5331 11.6903 29.1816L11.5908 28.902C11.3582 28.1091 10.9971 27.359 10.5215 26.6813C10.1346 25.9507 9.91476 25.1445 9.87751 24.32C9.84026 23.4955 9.98655 22.6729 10.306 21.9109C10.4501 21.6027 10.6868 21.3462 10.9836 21.1769C11.2805 21.0075 11.6229 20.9335 11.9638 20.965C11.9141 20.5456 11.8561 20.1426 11.8063 19.7396C11.5162 17.5435 10.6376 10.865 14.5003 6.50583C16.8544 3.84099 20.5514 2.49213 25.4834 2.49213C30.4154 2.49213 34.1124 3.84099 36.4748 6.50583C40.3292 10.865 39.4506 17.5435 39.1604 19.7396C39.1107 20.1426 39.0527 20.562 39.003 20.965C39.343 20.9394 39.683 21.0159 39.9787 21.1846C40.2744 21.3533 40.512 21.6064 40.6608 21.9109C40.9812 22.673 41.1274 23.4961 41.0887 24.321C41.05 25.1459 40.8274 25.952 40.437 26.6813C39.9619 27.3552 39.6033 28.1029 39.376 28.8938L39.2765 29.1816C39.1888 29.5333 39.0129 29.8573 38.765 30.1234C38.5172 30.3894 38.2055 30.5889 37.8591 30.7032C37.8591 30.9911 37.801 31.2543 37.7844 31.4764C37.6104 33.3187 35.1734 35.7862 32.239 38.5826C31.5676 39.2159 30.9957 39.767 30.7138 40.0877C30.3522 40.4836 29.9068 40.7951 29.4095 40.9999C28.9122 41.2046 28.3753 41.2976 27.8375 41.2721ZM25.4917 39.4627H25.5414H26.4532L26.8925 39.512C27.2057 39.5563 27.5213 39.581 27.8375 39.586C28.1428 39.6135 28.4504 39.5722 28.7374 39.4654C29.0244 39.3586 29.2835 39.189 29.4953 38.9692C29.8269 38.5908 30.3988 38.0398 31.1531 37.3242C32.869 35.6792 36.0686 32.6278 36.1929 31.2543C36.2344 30.8513 36.2841 30.3413 36.3421 29.7574C36.355 29.6411 36.3927 29.5288 36.4527 29.4281C36.5128 29.3274 36.5938 29.2406 36.6903 29.1734C36.7847 29.105 36.8925 29.0573 37.0068 29.0332C37.1211 29.0091 37.2392 29.0092 37.3534 29.0336H37.4446C37.5938 29.0336 37.743 28.6306 37.7762 28.5483L37.8673 28.2687C38.1409 27.3569 38.5578 26.4937 39.1024 25.7108C39.6661 24.8389 39.5749 22.7827 39.1936 22.5031C39.0595 22.5614 38.9318 22.633 38.8123 22.7169C38.6711 22.822 38.4998 22.8797 38.3233 22.8814H38.0663C37.9486 22.8813 37.8323 22.8563 37.7251 22.8081C37.6179 22.7598 37.5223 22.6895 37.4446 22.6018C37.3679 22.5147 37.3104 22.4126 37.2762 22.3021C37.2419 22.1915 37.2315 22.0751 37.2457 21.9603C37.3534 21.1378 37.4612 20.2413 37.5689 19.4352C37.8342 17.4284 38.6382 11.3009 35.2728 7.50103C33.242 5.20631 29.9678 4.04662 25.5331 4.04662C21.0984 4.04662 17.8242 5.20631 15.7934 7.50103C12.4363 11.3009 13.2321 17.4284 13.4973 19.4352C13.6051 20.2577 13.7129 21.0802 13.8206 21.952C13.836 22.0681 13.8262 22.1862 13.7919 22.2982C13.7576 22.4103 13.6995 22.5138 13.6217 22.6018C13.544 22.6895 13.4484 22.7598 13.3412 22.8081C13.234 22.8563 13.1177 22.8813 13 22.8814H12.7513C12.572 22.8814 12.3974 22.8237 12.254 22.7169C12.1406 22.6121 11.9999 22.5408 11.8478 22.5113C11.4914 22.7663 11.4002 24.8307 11.9638 25.7108C12.5085 26.4937 12.9253 27.3569 13.1989 28.2687L13.2984 28.5483C13.2984 28.6306 13.4725 29.0336 13.6299 29.0336H13.7128C13.8278 29.0068 13.9471 29.0047 14.0629 29.0274C14.1787 29.0501 14.2882 29.0971 14.3843 29.1652C14.4793 29.2332 14.5587 29.3204 14.6173 29.421C14.6758 29.5217 14.7123 29.6335 14.7241 29.7492C14.7821 30.3331 14.8319 30.843 14.8733 31.2461C14.9977 32.6196 18.189 35.671 19.9131 37.316C20.6342 37.9986 21.2062 38.5497 21.5709 38.9609C21.7816 39.1823 22.0405 39.3529 22.3279 39.4598C22.6152 39.5667 22.9233 39.6071 23.2287 39.5778C23.5422 39.5725 23.8551 39.5478 24.1654 39.5038L24.613 39.4544H25.5248L25.4917 39.4627Z" fill="white"/>
<path d="M13.9615 26.2618C13.7912 26.2617 13.625 26.2096 13.4856 26.1125C13.3462 26.0153 13.2403 25.8779 13.1823 25.719C12.7265 24.4302 12.3419 23.1178 12.0302 21.7875C10.3363 16.9634 10.0208 11.7683 11.1184 6.77724C11.4573 5.22666 12.0154 3.7314 12.7762 2.33584C12.8646 2.181 13.0013 2.05882 13.1657 1.98763C13.3302 1.91644 13.5134 1.90009 13.688 1.94104C14.683 2.12493 15.711 1.99852 16.6306 1.57916C18.6998 0.908306 20.8287 0.434609 22.9884 0.164494C23.7405 0.0553528 24.4995 0.000379548 25.2596 0C28.3266 0 30.0922 0.995201 31.004 1.78478C31.3444 1.71182 31.6918 1.67596 32.0401 1.67786C33.3121 1.71722 34.5623 2.01682 35.7122 2.5579C39.9065 4.39204 41.1747 9.26935 39.6993 17.9054C39.333 20.5651 38.7027 23.1823 37.8176 25.719C37.7497 25.908 37.6144 26.0659 37.4373 26.1628C37.2602 26.2598 37.0535 26.2891 36.8561 26.2454C36.6691 26.2036 36.5025 26.0988 36.3846 25.9488C36.2667 25.7989 36.2048 25.613 36.2095 25.4229C36.2095 25.3406 36.7981 17.6093 35.6459 14.6813C35.599 14.565 35.5436 14.4523 35.4801 14.3441L34.9662 13.5874C34.5237 13.1133 33.988 12.7344 33.392 12.4741C32.796 12.2137 32.1525 12.0776 31.5013 12.074C30.9558 12.0372 30.415 12.1946 29.9761 12.5182C28.7869 13.4985 27.2774 14.0134 25.7321 13.9657H25.2845C23.7391 14.0134 22.2296 13.4985 21.0404 12.5182C20.5917 12.189 20.0385 12.0314 19.4821 12.074C18.6102 12.0599 17.7532 12.2992 17.0167 12.7625C16.2803 13.2258 15.6966 13.8928 15.3375 14.6813C14.2848 17.379 14.691 24.1398 14.7656 25.2584C14.7776 25.3319 14.7776 25.4069 14.7656 25.4805C14.7656 25.6986 14.6782 25.9078 14.5228 26.062C14.3673 26.2163 14.1565 26.3029 13.9367 26.3029L13.9615 26.2618ZM13.9615 3.66004C13.4213 4.75892 13.0177 5.91891 12.7596 7.11446C11.868 11.1404 11.9589 15.3196 13.0248 19.3036C13.0362 17.5179 13.3155 15.7438 13.8538 14.0397C14.3387 12.9617 15.1287 12.0465 16.1279 11.4056C17.127 10.7646 18.2923 10.4253 19.4821 10.4291C20.4586 10.378 21.4173 10.702 22.1595 11.3338C23.048 12.0062 24.1427 12.3548 25.2596 12.3208H25.7404C26.8575 12.3561 27.9526 12.0075 28.8405 11.3338C29.5801 10.7033 30.5358 10.3793 31.5096 10.4291C32.4058 10.4327 33.2911 10.6235 34.108 10.9891C34.9249 11.3547 35.6551 11.8869 36.251 12.5511L36.309 12.6251L36.8809 13.4476L36.9307 13.5298C37.0262 13.706 37.112 13.8872 37.1876 14.0726C37.6523 15.5039 37.9064 16.9943 37.942 18.4976C37.9834 18.2344 38.0249 17.9712 38.058 17.6751C39.807 7.41877 37.1794 5.00068 35.0491 4.07128C34.1077 3.62272 33.0836 3.37077 32.0401 3.33104C31.7394 3.31964 31.4391 3.36142 31.1532 3.45442C31.0744 3.49278 30.9907 3.52044 30.9045 3.53666C30.7712 3.5562 30.6351 3.54319 30.508 3.49876C30.3809 3.45433 30.2666 3.37982 30.175 3.28169C29.6031 2.67306 28.2022 1.63673 25.2596 1.63673C24.5745 1.63987 23.8905 1.68934 23.2122 1.78478C21.1455 2.04552 19.1083 2.4999 17.128 3.14187C16.1203 3.55195 15.0318 3.72915 13.945 3.66004H13.9615Z" fill="white"/>
<path d="M28.2768 36.6909C28.0569 36.6909 27.8461 36.6042 27.6907 36.45C27.5352 36.2957 27.4479 36.0865 27.4479 35.8684C27.4479 35.6503 27.5352 35.4411 27.6907 35.2868C27.8461 35.1326 28.0569 35.0459 28.2768 35.0459C32.5706 35.0459 35.6873 34.0096 37.5192 31.9616C38.7936 30.4883 39.4336 28.5772 39.3013 26.6402C39.2883 26.5322 39.2968 26.4226 39.3264 26.3179C39.3559 26.2131 39.4061 26.1152 39.4738 26.0297C39.5415 25.9441 39.6256 25.8727 39.7211 25.8194C39.8167 25.766 39.9219 25.7319 40.0308 25.719C40.1396 25.706 40.25 25.7145 40.3556 25.7438C40.4611 25.7732 40.5598 25.8229 40.646 25.8901C40.7323 25.9573 40.8043 26.0407 40.858 26.1355C40.9117 26.2304 40.9461 26.3348 40.9592 26.4428C41.1431 28.835 40.362 31.2018 38.7874 33.0226C36.6157 35.4572 33.0845 36.6909 28.2768 36.6909Z" fill="white"/>
<path d="M39.7822 30.3002H38.7626C38.5538 30.3009 38.3524 30.2233 38.1988 30.083C38.0451 29.9427 37.9504 29.7501 37.9337 29.5435C36.6738 28.4414 35.8615 26.2536 35.8615 23.9753C35.8615 21.6971 36.6904 19.5175 37.9337 18.4154C37.9504 18.2088 38.0451 18.0161 38.1988 17.8759C38.3524 17.7356 38.5538 17.658 38.7626 17.6587H39.8734C41.9042 17.7491 43.4294 20.4387 43.4294 23.9753C43.4294 27.512 41.9042 30.2097 39.8734 30.3002H39.7822ZM39.4341 28.6552H39.7739C40.6028 28.6552 41.7716 26.8622 41.7716 23.9753C41.7716 21.0884 40.6111 19.3119 39.7739 19.3036H39.4341C39.3755 19.3795 39.3056 19.4461 39.2268 19.501C38.3979 20.0685 37.5275 21.7875 37.5275 23.9753C37.5275 26.1631 38.3565 27.8903 39.2268 28.4578C39.3056 28.5128 39.3755 28.5794 39.4341 28.6552Z" fill="white"/>
<path d="M38.804 30.44H37.7181C37.1866 30.402 36.6915 30.1582 36.3395 29.7613C35.9875 29.3643 35.8068 28.846 35.8365 28.318V19.6409C35.8047 19.1124 35.9845 18.5929 36.337 18.1954C36.6894 17.798 37.1858 17.5548 37.7181 17.5189H38.7708C39.3031 17.5548 39.7996 17.798 40.152 18.1954C40.5044 18.5929 40.6843 19.1124 40.6525 19.6409V28.318C40.6825 28.8407 40.5064 29.3545 40.1614 29.7505C39.8164 30.1466 39.3295 30.3939 38.804 30.44ZM37.7181 19.1638C37.6601 19.1638 37.4943 19.3283 37.4943 19.6409V28.318C37.4943 28.6306 37.6601 28.7951 37.7181 28.7951H38.7708C38.8289 28.7951 38.9946 28.6306 38.9946 28.318V19.6409C38.9946 19.3283 38.8289 19.1638 38.7708 19.1638H37.7181Z" fill="white"/>
<path d="M12.2209 30.3002H11.1184C9.07929 30.2097 7.55408 27.512 7.55408 23.9753C7.55408 20.4387 9.07929 17.7491 11.1184 17.6587H12.2209C12.4297 17.658 12.6311 17.7356 12.7847 17.8759C12.9384 18.0161 13.0331 18.2088 13.0498 18.4154C14.3014 19.5175 15.1138 21.7053 15.1138 23.9753C15.1138 26.2454 14.2849 28.4414 13.0498 29.5435C13.0331 29.7501 12.9384 29.9427 12.7847 30.083C12.6311 30.2233 12.4297 30.3009 12.2209 30.3002ZM11.2676 28.6552H11.5494C11.608 28.5794 11.6779 28.5128 11.7567 28.4578C12.5856 27.8903 13.456 26.1714 13.456 23.9753C13.456 21.7793 12.627 20.0685 11.7567 19.501C11.6779 19.4461 11.608 19.3795 11.5494 19.3036H11.193C10.3641 19.3036 9.19533 21.0966 9.19533 23.9753C9.19533 26.854 10.3641 28.647 11.193 28.6552H11.2676Z" fill="white"/>
<path d="M13.232 30.44H12.1876C11.6561 30.402 11.161 30.1582 10.809 29.7613C10.457 29.3643 10.2763 28.846 10.306 28.318V19.6409C10.2741 19.1124 10.454 18.5929 10.8065 18.1954C11.1589 17.798 11.6553 17.5548 12.1876 17.5189H13.232C13.7651 17.5527 14.2629 17.7953 14.6158 18.1932C14.9686 18.5911 15.1477 19.1119 15.1137 19.6409V28.318C15.1455 28.8465 14.9656 29.366 14.6132 29.7635C14.2608 30.1609 13.7643 30.4041 13.232 30.44ZM12.1876 19.1638C12.1296 19.1638 11.9638 19.3283 11.9638 19.6409V28.318C11.9638 28.6306 12.1296 28.7951 12.1876 28.7951H13.232C13.2901 28.7951 13.4559 28.6306 13.4559 28.318V19.6409C13.4559 19.3283 13.2901 19.1638 13.232 19.1638H12.1876Z" fill="white"/>
<path d="M39.7904 19.7395C39.5706 19.7395 39.3597 19.6529 39.2043 19.4986C39.0488 19.3444 38.9615 19.1352 38.9615 18.9171C38.9615 11.2022 32.9187 4.93488 25.4917 4.93488C18.0646 4.93488 12.0218 11.2104 12.0218 18.9171C12.0218 19.1352 11.9345 19.3444 11.779 19.4986C11.6236 19.6529 11.4128 19.7395 11.1929 19.7395C10.9731 19.7395 10.7623 19.6529 10.6068 19.4986C10.4514 19.3444 10.364 19.1352 10.364 18.9171C10.364 10.2975 17.1528 3.28992 25.4917 3.28992C33.8305 3.28992 40.6193 10.3057 40.6193 18.9171C40.6193 19.1352 40.532 19.3444 40.3765 19.4986C40.2211 19.6529 40.0102 19.7395 39.7904 19.7395Z" fill="white"/>
<path d="M29.5865 37.8424H25.6989C25.1946 37.81 24.7215 37.5884 24.3759 37.2225C24.0302 36.8567 23.8379 36.374 23.8379 35.8725C23.8379 35.371 24.0302 34.8884 24.3759 34.5225C24.7215 34.1566 25.1946 33.935 25.6989 33.9027H29.5865C30.0909 33.935 30.5639 34.1566 30.9096 34.5225C31.2552 34.8884 31.4476 35.371 31.4476 35.8725C31.4476 36.374 31.2552 36.8567 30.9096 37.2225C30.5639 37.5884 30.0909 37.81 29.5865 37.8424ZM25.6989 35.5476C25.6176 35.5476 25.5396 35.5797 25.4821 35.6368C25.4245 35.6939 25.3922 35.7713 25.3922 35.852C25.3888 35.8948 25.3942 35.9378 25.4079 35.9785C25.4216 36.0192 25.4433 36.0568 25.4719 36.0891C25.5005 36.1213 25.5354 36.1475 25.5744 36.1661C25.6134 36.1847 25.6557 36.1953 25.6989 36.1974H29.5865C29.6644 36.1851 29.7353 36.1456 29.7865 36.086C29.8377 36.0265 29.8658 35.9508 29.8658 35.8725C29.8658 35.7943 29.8377 35.7186 29.7865 35.659C29.7353 35.5995 29.6644 35.56 29.5865 35.5476H25.6989Z" fill="white"/>
<path d="M49.6711 60H1.32891C1.10907 60 0.898233 59.9133 0.742782 59.7591C0.587331 59.6049 0.5 59.3956 0.5 59.1775C0.515372 56.7021 0.684237 54.23 1.00564 51.7752C1.66877 47.4654 2.45623 45.7711 8.24204 45.1049H8.63163C10.7868 44.8581 15.8432 44.2824 17.6585 43.2625C18.135 42.8594 18.4546 42.3037 18.562 41.6916C18.5947 41.5791 18.6511 41.4749 18.7276 41.3858C18.8041 41.2968 18.8989 41.2249 19.0056 41.1751C19.1123 41.1253 19.2284 41.0986 19.3463 41.0969C19.4643 41.0952 19.5812 41.1185 19.6893 41.1652L25.3839 43.6326L31.3107 41.1652C31.4373 41.1141 31.5747 41.0948 31.7107 41.1092C31.8466 41.1235 31.9769 41.171 32.0898 41.2474C32.2518 41.3572 32.3693 41.5204 32.4214 41.708C32.5294 42.3196 32.8525 42.8733 33.3332 43.2707C35.1402 44.2988 40.1966 44.8663 42.3518 45.1131H42.7414C48.5438 45.7793 49.3229 47.4736 49.9778 51.7834C50.2936 54.1781 50.4624 56.5897 50.4834 59.0048C50.4916 59.0621 50.4916 59.1202 50.4834 59.1775C50.4835 59.3928 50.3984 59.5996 50.2465 59.7533C50.0947 59.9071 49.888 59.9957 49.6711 60ZM2.17439 58.355H48.8173C48.7784 56.2397 48.6206 54.1281 48.3448 52.0302C47.806 48.5099 47.6237 47.3338 42.5424 46.7498L42.1611 46.7005C39.6744 46.4291 34.6097 45.878 32.5043 44.6607C31.8772 44.2759 31.394 43.6982 31.1283 43.0158L25.6824 45.2529C25.5801 45.2959 25.4701 45.318 25.3591 45.318C25.248 45.318 25.1381 45.2959 25.0358 45.2529L19.8385 43.0322C19.5719 43.7117 19.0925 44.2883 18.4708 44.6772C16.3571 45.8698 11.2593 46.4455 8.80569 46.7169L8.4244 46.7663C3.35146 47.3502 3.17739 48.5264 2.62201 52.0466C2.35099 54.1392 2.20153 56.2454 2.17439 58.355Z" fill="white"/>
<path d="M27.0252 60H23.9582C23.8764 59.9981 23.7954 59.9843 23.7178 59.9589L22.06 59.4572C21.856 59.3942 21.6844 59.2556 21.5809 59.0702C21.4774 58.8848 21.4501 58.6669 21.5046 58.4619L24.3975 47.4407C24.4219 47.3435 24.4641 47.2515 24.5218 47.1693L24.8202 46.7663C24.8965 46.66 24.9972 46.5732 25.1139 46.5131C25.2307 46.4531 25.3602 46.4214 25.4917 46.4208C25.6246 46.4201 25.7557 46.4511 25.874 46.5113C25.9923 46.5714 26.0943 46.6588 26.1714 46.7663L26.4615 47.1693C26.5193 47.2515 26.5614 47.3435 26.5858 47.4407L29.4787 58.4702C29.5329 58.6762 29.5044 58.895 29.3993 59.0806C29.2941 59.2662 29.1206 59.4041 28.9151 59.4654L27.2573 59.9671C27.182 59.9897 27.1038 60.0008 27.0252 60ZM24.0908 58.355H26.9423L27.7131 58.1165L25.5331 49.793L23.3116 58.133L24.0908 58.355Z" fill="white"/>
<path d="M23.9582 60H1.32891C1.10907 60 0.898233 59.9134 0.742782 59.7591C0.587331 59.6049 0.5 59.3957 0.5 59.1775C0.515372 56.7021 0.684237 54.23 1.00564 51.7752C1.66877 47.4654 2.45623 45.7711 8.24204 45.1049H8.61506C9.92474 44.9568 12.1214 44.7101 14.1273 44.2824C14.2843 44.2548 14.4461 44.2726 14.5931 44.3339C14.7401 44.3952 14.8662 44.4972 14.9562 44.6278L24.6296 58.7087C24.7162 58.8326 24.7669 58.9777 24.776 59.1281C24.7851 59.2786 24.7524 59.4287 24.6814 59.562C24.6104 59.6952 24.5038 59.8066 24.3734 59.8838C24.2429 59.9611 24.0936 60.0013 23.9416 60H23.9582ZM2.17439 58.355H22.3916L13.9118 46.0178C11.997 46.3633 10.0242 46.5853 8.80569 46.7169L8.4327 46.7663C3.35975 47.3502 3.18567 48.5264 2.6303 52.0466C2.3565 54.139 2.20428 56.2453 2.17439 58.355Z" fill="white"/>
<path d="M49.6545 60H27.0252C26.873 60.0003 26.7237 59.959 26.5935 59.8807C26.4634 59.8024 26.3575 59.69 26.2875 59.5559C26.2221 59.4265 26.1923 59.2824 26.2011 59.138C26.2098 58.9936 26.2568 58.854 26.3372 58.7334L36.0106 44.6525C36.1007 44.5219 36.2268 44.4199 36.3738 44.3586C36.5208 44.2973 36.6825 44.2794 36.8396 44.3071C38.8455 44.7019 41.0421 44.9486 42.3518 45.1296H42.7248C48.5272 45.7958 49.3064 47.4901 49.9612 51.7999C50.2826 54.2547 50.4515 56.7268 50.4669 59.2022C50.4669 59.4203 50.3795 59.6295 50.2241 59.7838C50.0686 59.938 49.8578 60.0247 49.638 60.0247L49.6545 60ZM28.5919 58.3551H48.8173C48.7784 56.2397 48.6207 54.1281 48.3449 52.0302C47.8061 48.51 47.6237 47.3338 42.5425 46.7498L42.1695 46.7005C40.951 46.5689 38.9781 46.3468 37.0716 46.0014L28.5919 58.3551Z" fill="white"/>
<path d="M25.3756 49.316C25.2625 49.3167 25.1506 49.2944 25.0465 49.2506C24.9424 49.2067 24.8485 49.1422 24.7705 49.061L22.8226 47.0048C22.6756 46.8518 22.5936 46.6486 22.5936 46.4373C22.5936 46.226 22.6756 46.0227 22.8226 45.8698L24.7705 43.8876C24.9193 43.7361 25.1211 43.6473 25.3342 43.6397C25.5472 43.632 25.755 43.7061 25.9144 43.8465L28.1856 45.8287C28.273 45.9048 28.3433 45.9984 28.3918 46.1032C28.4404 46.2081 28.4661 46.3219 28.4675 46.4373C28.4683 46.5534 28.4444 46.6685 28.3973 46.7748C28.3501 46.8811 28.2808 46.9763 28.1939 47.0542L25.931 49.0857C25.7815 49.2288 25.5833 49.311 25.3756 49.316ZM24.5467 46.4537L25.3756 47.342L26.362 46.4537L25.3756 45.5901L24.5467 46.4537Z" fill="white"/>
<path d="M21.4052 49.316C21.2941 49.3166 21.184 49.2951 21.0815 49.2527C20.979 49.2103 20.8861 49.1479 20.8084 49.0692L16.8379 45.0391C16.6999 44.8981 16.6174 44.7127 16.6052 44.5166C16.593 44.3205 16.6521 44.1265 16.7716 43.9698L18.6946 41.3955C18.8062 41.2468 18.9652 41.1398 19.1458 41.0921C19.3264 41.0443 19.5179 41.0585 19.6893 41.1323L25.6989 43.7066C25.8227 43.7586 25.9319 43.8397 26.0171 43.9428C26.1023 44.046 26.161 44.1682 26.188 44.2988C26.2147 44.4309 26.2082 44.5676 26.1692 44.6966C26.1301 44.8257 26.0598 44.9433 25.9642 45.0391L21.9688 49.0857C21.8172 49.2307 21.6157 49.313 21.4052 49.316ZM18.5205 44.3811L21.4052 47.3091L23.9416 44.7347L19.6396 42.8924L18.5205 44.3811Z" fill="white"/>
<path d="M29.3462 49.316C29.2351 49.3166 29.1251 49.2951 29.0225 49.2527C28.92 49.2104 28.8271 49.1479 28.7494 49.0692L24.7789 45.0391C24.6844 44.9436 24.6148 44.8267 24.5761 44.6985C24.5375 44.5703 24.531 44.4347 24.5571 44.3034C24.5832 44.1721 24.6413 44.0492 24.7261 43.9452C24.811 43.8412 24.9201 43.7593 25.0441 43.7067L31.062 41.1323C31.2325 41.0606 31.4222 41.0475 31.601 41.0952C31.7797 41.1429 31.9373 41.2486 32.0484 41.3955L33.9798 43.9699C34.0982 44.1275 34.1558 44.322 34.1421 44.5182C34.1284 44.7143 34.0444 44.8991 33.9052 45.0391L29.9347 49.0692C29.8579 49.147 29.7664 49.2088 29.6654 49.2511C29.5644 49.2935 29.4559 49.3155 29.3462 49.316ZM26.8097 44.743L29.3462 47.3174L32.2308 44.3893L31.0869 42.9006L26.8097 44.743Z" fill="white"/>
</g>
<defs>
<clipPath id="clip0_102_84">
<rect width="50" height="60" fill="white" transform="translate(0.5)"/>
</clipPath>
</defs>
</svg>
