<svg width="78" height="78" viewBox="0 0 78 78" fill="none" xmlns="http://www.w3.org/2000/svg">
<circle cx="39" cy="39" r="39" fill="#BB0712"/>
<g clip-path="url(#clip0_257_52)">
<path d="M28.5192 34.8734C30.7593 33.6673 31.1762 33.3915 31.2416 33.352L31.3479 33.2969C31.4857 33.2208 31.587 33.0954 31.6298 32.9479C31.6726 32.8005 31.6536 32.6427 31.5768 32.5086L25.2246 21.8906C25.1416 21.7619 25.0104 21.6689 24.8583 21.6307C24.7061 21.5926 24.5446 21.6122 24.4071 21.6856C22.1916 22.6851 20.1197 23.9569 18.2429 25.4693C16.9555 26.6589 15.9857 28.1312 15.4163 29.7605C14.8468 31.3899 14.6947 33.1278 14.9728 34.8261C15.496 39.0276 21.513 48.5341 21.513 48.5341C21.513 48.5341 27.0395 58.3008 30.5549 60.8312C31.9443 61.9127 33.5853 62.6529 35.3368 62.9879C37.0884 63.3229 38.8981 63.2428 40.6105 62.7545C42.9106 61.9401 45.0923 60.8432 47.1016 59.4911C47.2365 59.4123 47.3347 59.2864 47.3758 59.1396C47.4169 58.9928 47.3978 58.8364 47.3224 58.7028L40.9048 48.0769C40.8658 48.011 40.8137 47.9532 40.7514 47.9068C40.6891 47.8604 40.6179 47.8263 40.5419 47.8065C40.466 47.7867 40.3867 47.7816 40.3086 47.7915C40.2306 47.8014 40.1554 47.8261 40.0872 47.8641C40.0529 47.8884 40.0201 47.9147 39.9891 47.9429C39.9891 47.9429 39.4577 48.1794 37.2504 49.4406C34.43 51.0172 34.3564 52.5937 34.3564 52.5937C33.0565 51.8055 28.8462 44.4509 28.8462 44.4509C28.8462 44.4509 24.3253 37.2461 24.2844 35.7799C24.2763 35.7326 25.7069 36.379 28.5192 34.8734Z" fill="#373737"/>
<path d="M43.4719 44.1356C43.2589 43.7742 43.1621 43.3599 43.1939 42.9453C43.3675 40.7473 42.8484 38.5499 41.7047 36.6412C40.561 34.7325 38.846 33.2014 36.7845 32.2485C36.2706 32.008 35.8769 31.5806 35.6898 31.0603C35.5028 30.5399 35.5377 29.9692 35.7871 29.4738C36.0364 28.9783 36.4797 28.5986 37.0194 28.4182C37.5591 28.2379 38.1509 28.2716 38.6648 28.5121C41.5049 29.8253 43.8669 31.9357 45.4411 34.5662C47.0153 37.1968 47.7281 40.2247 47.4859 43.2527C47.4488 43.694 47.2668 44.1123 46.9662 44.4469C46.6657 44.7816 46.2623 45.0151 45.8147 45.1136C45.3671 45.212 44.8985 45.1703 44.4772 44.9944C44.0559 44.8185 43.7037 44.5177 43.4719 44.1356Z" fill="#373737"/>
<path d="M51.2792 44.5534C51.0595 44.1974 50.9622 43.7835 51.0013 43.371C51.2912 39.6936 50.4233 36.0174 48.511 32.8234C46.5988 29.6294 43.7312 27.0663 40.2835 25.4693C40.029 25.3508 39.8013 25.1851 39.6133 24.9817C39.4252 24.7783 39.2806 24.5412 39.1876 24.2839C38.9998 23.7643 39.0338 23.194 39.282 22.6986C39.4049 22.4532 39.5768 22.2336 39.7877 22.0523C39.9986 21.871 40.2446 21.7316 40.5114 21.6419C41.0503 21.4608 41.6417 21.4936 42.1556 21.7329C46.3841 23.686 49.9015 26.826 52.2461 30.741C54.5906 34.656 55.6528 39.163 55.2933 43.6705C55.2617 44.1148 55.0825 44.5375 54.7822 44.876C54.482 45.2145 54.0767 45.4507 53.6264 45.5498C53.1761 45.6488 52.7046 45.6054 52.2819 45.4259C51.8591 45.2465 51.5076 44.9405 51.2792 44.5534Z" fill="#373737"/>
<path d="M59.0785 45.0106C58.8669 44.6486 58.7703 44.2347 58.8006 43.8203C59.2133 38.6656 58 33.5111 55.3198 29.0333C52.6397 24.5556 48.6179 20.9638 43.7826 18.7296C43.2654 18.4903 42.8681 18.0626 42.678 17.5408C42.4879 17.0189 42.5206 16.4456 42.7688 15.947C43.0171 15.4484 43.4606 15.0653 44.0018 14.882C44.543 14.6987 45.1376 14.7302 45.6547 14.9696C51.2763 17.5641 55.9512 21.7393 59.0639 26.9455C62.1766 32.1517 63.5812 38.1447 63.0926 44.1356C63.0729 44.4074 62.9978 44.6727 62.8717 44.9165C62.7455 45.1603 62.5708 45.3778 62.3574 45.5564C62.1441 45.735 61.8963 45.8714 61.6283 45.9576C61.3602 46.0438 61.0772 46.0783 60.7953 46.059C60.4428 46.0303 60.1027 45.92 59.8038 45.7374C59.5049 45.5549 59.2561 45.3056 59.0785 45.0106Z" fill="#373737"/>
</g>
<defs>
<clipPath id="clip0_257_52">
<rect width="50" height="50" fill="white" transform="translate(14 14)"/>
</clipPath>
</defs>
</svg>
