<svg width="40" height="40" viewBox="0 0 40 40" fill="none" xmlns="http://www.w3.org/2000/svg">
<g clip-path="url(#clip0_102_153)">
<path fill-rule="evenodd" clip-rule="evenodd" d="M0 20.0563C0 14.7371 2.11308 9.63565 5.87438 5.87435C9.63567 2.11306 14.7371 0 20.0563 0C25.3756 0 30.477 2.11306 34.2383 5.87435C37.9996 9.63565 40.1127 14.7371 40.1127 20.0563" fill="#373737"/>
<path fill-rule="evenodd" clip-rule="evenodd" d="M40.1127 20.0563C40.1127 25.3756 37.9996 30.477 34.2383 34.2383C30.477 37.9996 25.3756 40.1127 20.0563 40.1127C14.7371 40.1127 9.63567 37.9996 5.87438 34.2383C2.11308 30.477 0 25.3756 0 20.0563" fill="#373737"/>
<path fill-rule="evenodd" clip-rule="evenodd" d="M34.1409 17.5775C34.1913 17.2791 34.1913 16.9744 34.1409 16.6761H33.3521H31.4366C31.2234 16.7691 30.9932 16.8172 30.7606 16.8172C30.5279 16.8172 30.2978 16.7691 30.0845 16.6761C29.9714 16.3862 29.9714 16.0645 30.0845 15.7747C30.1471 15.2507 30.1471 14.7212 30.0845 14.1972C30.1377 14.0132 30.1377 13.8178 30.0845 13.6338C30.1352 13.2222 30.1352 12.806 30.0845 12.3944C29.9349 11.6395 29.5846 10.9388 29.0704 10.3662C28.4191 9.68072 27.6574 9.10939 26.8169 8.67605C26.1167 8.26111 25.3566 7.95704 24.5634 7.77464H23.2113C21.1831 7.77464 19.1549 7.77464 17.1268 7.77464C16.1915 7.65681 15.2451 7.65681 14.3099 7.77464C13.3621 8.14829 12.4855 8.68188 11.7183 9.35212C10.1769 10.6622 9.20687 12.5215 9.0141 14.5352V25.2394C8.96277 25.7264 8.96277 26.2173 9.0141 26.7042C8.95982 27.1533 8.95982 27.6073 9.0141 28.0563C9.17083 28.5734 9.39834 29.0664 9.69016 29.5211C10.164 30.43 10.8153 31.2347 11.6057 31.8873L12.5071 32.4507H13.0704H14.5352L14.3099 33.4648H28.169H29.5211L30.8733 32.6761C31.791 32.1247 32.5849 31.3897 33.2054 30.5172C33.8258 29.6447 34.2594 28.6535 34.4789 27.6056C34.5406 27.1948 34.5406 26.777 34.4789 26.3662L34.1409 17.5775ZM15.2113 13.1831H20.2817C20.5591 13.1896 20.8323 13.2529 21.0842 13.3692C21.3362 13.4855 21.5616 13.6523 21.7465 13.8592C21.8623 14.2642 21.8623 14.6936 21.7465 15.0986C21.6491 15.4766 21.4317 15.8127 21.1269 16.0565C20.8221 16.3003 20.4465 16.4387 20.0564 16.4507H15.4366C15.1865 16.3736 14.9561 16.243 14.7615 16.0679C14.5669 15.8927 14.4128 15.6773 14.3099 15.4366C14.1994 15.233 14.135 15.0075 14.1215 14.7762C14.108 14.5449 14.1456 14.3134 14.2317 14.0983C14.3177 13.8832 14.4501 13.6896 14.6194 13.5315C14.7887 13.3733 14.9908 13.2544 15.2113 13.1831ZM26.4789 25.8028C26.0807 25.9598 25.6377 25.9598 25.2395 25.8028H16C15.7188 25.8902 15.422 25.9153 15.1301 25.8764C14.8382 25.8375 14.5583 25.7355 14.3099 25.5775C14.1714 25.3377 14.0985 25.0656 14.0985 24.7887C14.0985 24.5118 14.1714 24.2398 14.3099 24C14.3957 23.7289 14.5587 23.4887 14.7787 23.3086C14.9988 23.1285 15.2666 23.0164 15.5493 22.9859H25.2395C25.6054 22.8655 26.0003 22.8655 26.3662 22.9859C26.6221 23.1275 26.8335 23.3375 26.977 23.5924C27.1204 23.8472 27.1902 24.1369 27.1785 24.4291C27.1668 24.7213 27.0741 25.0045 26.9108 25.2471C26.7474 25.4897 26.5199 25.6821 26.2535 25.8028H26.4789Z" fill="white"/>
</g>
<defs>
<clipPath id="clip0_102_153">
<rect width="40" height="40" fill="white"/>
</clipPath>
</defs>
</svg>
