<svg width="40" height="40" viewBox="0 0 40 40" fill="none" xmlns="http://www.w3.org/2000/svg">
<g clip-path="url(#clip0_102_150)">
<path d="M40.1126 20.0563C40.046 24.008 38.8134 27.852 36.5695 31.1054C34.3255 34.3589 31.1704 36.8769 27.5002 38.3432C23.83 39.8095 19.8084 40.1588 15.9404 39.3472C12.0724 38.5355 8.53038 36.5992 5.75916 33.7813C2.98795 30.9633 1.11107 27.3895 0.364194 23.5085C-0.382682 19.6274 0.0337458 15.6122 1.56119 11.967C3.08864 8.32188 5.65899 5.20926 8.94952 3.02002C12.24 0.830788 16.1041 -0.337466 20.0563 -0.338028C22.7188 -0.338406 25.3548 0.191348 27.8104 1.22035C30.2661 2.24934 32.4922 3.75699 34.3591 5.65534C36.226 7.5537 37.6962 9.80475 38.6841 12.2773C39.6719 14.7497 40.1575 17.3942 40.1126 20.0563Z" fill="#373737"/>
<path fill-rule="evenodd" clip-rule="evenodd" d="M28.0563 9.12677H12.0563C11.6584 9.07038 11.2529 9.10728 10.8717 9.23457C10.4906 9.36185 10.1443 9.57603 9.86013 9.86018C9.57598 10.1443 9.3618 10.4906 9.23452 10.8718C9.10723 11.2529 9.07033 11.6585 9.12672 12.0563V28.0563C9.07392 28.4437 9.10943 28.838 9.23061 29.2097C9.35178 29.5813 9.55549 29.9208 9.82645 30.2026C10.0974 30.4844 10.4286 30.7012 10.7953 30.8369C11.1619 30.9725 11.5545 31.0235 11.9436 30.9859H28.0563C28.4542 31.0423 28.8597 31.0054 29.2409 30.8781C29.622 30.7508 29.9683 30.5367 30.2525 30.2525C30.5366 29.9684 30.7508 29.622 30.8781 29.2409C31.0054 28.8597 31.0423 28.4542 30.9859 28.0563V12.0563C31.0423 11.6585 31.0054 11.2529 30.8781 10.8718C30.7508 10.4906 30.5366 10.1443 30.2525 9.86018C29.9683 9.57603 29.622 9.36185 29.2409 9.23457C28.8597 9.10728 28.4542 9.07038 28.0563 9.12677ZM26.2535 11.6056C28.507 11.6056 28.507 11.6056 28.507 13.7465C28.507 15.8873 28.507 15.8873 26.3662 15.8873C24.2253 15.8873 24.2253 15.8873 24.2253 13.7465C24.2253 11.6056 24.2253 11.6056 26.2535 11.6056ZM20.0563 15.7747C21.1722 15.804 22.2326 16.2681 23.0113 17.0679C23.7901 17.8677 24.2257 18.94 24.2253 20.0563C24.2255 20.6134 24.1141 21.1649 23.8975 21.6782C23.681 22.1915 23.3638 22.6562 22.9647 23.0448C22.5655 23.4335 22.0925 23.7382 21.5737 23.9409C21.0548 24.1437 20.5005 24.2404 19.9436 24.2254C18.8277 24.196 17.7673 23.7319 16.9886 22.9321C16.2098 22.1323 15.7742 21.06 15.7746 19.9437C15.8311 18.8369 16.3037 17.7924 17.0977 17.0193C17.8917 16.2462 18.9484 15.8016 20.0563 15.7747ZM28.507 27.0423C28.507 28.0563 28.507 28.2817 27.1549 28.2817H12.9577C11.9436 28.2817 11.6056 28.2817 11.6056 27.0423V19.1549C11.6056 18.3662 11.6056 18.1408 12.507 18.2535C13.4084 18.3662 13.5211 18.2535 13.4084 19.1549C13.2055 20.8184 13.6383 22.4973 14.6203 23.8553C15.6022 25.2133 17.0608 26.1504 18.7042 26.4789C20.2649 26.7645 21.8765 26.4922 23.2566 25.7094C24.6368 24.9266 25.6976 23.6833 26.2535 22.1972C26.4791 21.1576 26.4791 20.0818 26.2535 19.0423C26.2535 19.0423 27.8309 19.0423 27.8309 20.3944L28.507 27.0423Z" fill="#FCFCFC"/>
</g>
<defs>
<clipPath id="clip0_102_150">
<rect width="40" height="40" fill="white"/>
</clipPath>
</defs>
</svg>
