<svg width="40" height="40" viewBox="0 0 40 40" fill="none" xmlns="http://www.w3.org/2000/svg">
<g clip-path="url(#clip0_102_147)">
<path d="M39.9997 19.9437C40.0219 23.9152 38.8679 27.8039 36.6838 31.1169C34.4998 34.4299 31.384 37.0181 27.7315 38.5534C24.079 40.0888 20.0542 40.5021 16.1672 39.7409C12.2802 38.9798 8.70607 37.0786 5.89777 34.2782C3.08947 31.4778 1.17346 27.9044 0.392606 24.0108C-0.388249 20.1172 0.0012018 16.0788 1.5116 12.4074C3.02199 8.73598 5.58533 5.59693 8.8767 3.38809C12.1681 1.17925 16.0393 6.26774e-05 19.9997 2.50097e-09C25.2846 -8.36335e-05 30.3547 2.09752 34.1022 5.83447C37.8498 9.57143 39.97 14.6439 39.9997 19.9437Z" fill="#373737"/>
<path d="M13.8202 14.3099H16.6292V12.8451C16.4119 11.6531 16.4119 10.4314 16.6292 9.23944C17.0549 8.41962 17.7218 7.75091 18.5393 7.32394C19.6896 6.75289 20.9648 6.48163 22.2472 6.53521C23.6605 6.53105 25.0649 6.75943 26.4045 7.21127L25.7303 10.7042H23.4831C22.6966 10.7042 22.2472 10.7042 21.9101 10.7042C21.573 10.7042 21.9101 11.6056 21.9101 12.6197V13.9718H25.0561V17.8028H21.4606V33.3521H16.4045V17.8028H13.8202V14.3099Z" fill="white"/>
</g>
<defs>
<clipPath id="clip0_102_147">
<rect width="40" height="40" fill="white"/>
</clipPath>
</defs>
</svg>
